<svg width="307" height="36" viewBox="0 0 307 36" fill="none" xmlns="http://www.w3.org/2000/svg">
<path fill-rule="evenodd" clip-rule="evenodd" d="M163.15 5.62326C160.776 5.86794 161.446 7.82126 158.909 9.9177C157.327 11.2203 156.231 11.8913 155.014 12.8484C152.254 15.0262 150.692 17.5089 150.753 21.1721C151.402 15.2701 156.15 12.5022 158.098 11.057C155.278 13.5397 153.979 15.5953 153.147 17.285C151.382 20.8662 151.301 23.5122 154.852 26.1373C156.313 27.196 158.341 28.4776 158.686 31.4286C157.814 29.9226 155.845 28.254 154.223 27.7856C157.57 30.3706 159.133 32.3442 158.625 35.7841C157.509 31.0629 151.991 29.6179 149.414 25.5674C143.388 15.3717 154.79 13.5397 158.077 8.63532C154.587 12.0954 149.657 12.95 147.304 18.0577C148.642 12.8484 150.631 11.2611 152.173 10.1008C154.872 8.12647 157.712 7.47503 159.01 3.77176C156.86 7.45552 154.811 7.61813 151.726 9.69329C149.271 11.3424 146.918 13.8862 146.309 19.6451C143.692 14.1501 146.675 6.45758 150.591 3.01849C154.649 -0.543192 159.68 -1.25543 163.84 4.11724C169.278 7.33268 171.225 14.6187 163.962 23.7359C169.196 16.3686 168.019 9.87692 164.935 7.25112C168.567 12.5425 166.275 17.5289 164.144 21.9452C162.825 24.6718 163.211 25.2824 164.367 28.0506C162.277 26.2186 162.845 24.5294 160.614 22.6982C159.092 21.4768 157.205 20.7238 155.927 19.3399C155.237 18.5663 155.014 17.7323 155.927 15.6764C156.414 14.6389 156.941 14.4558 157.529 14.842C158.077 15.2291 159.903 16.8569 160.147 15.473C160.208 15.086 160.127 14.8623 160.552 14.6794C160.836 14.5574 161.121 14.6184 161.039 14.2111C160.999 14.0077 161.06 13.9264 161.303 13.8859C161.587 13.8249 161.567 13.7233 161.526 13.3973C161.405 12.6035 162.033 12.7053 162.419 12.5833C162.784 12.4612 162.784 12.1767 162.683 11.8505C162.622 11.6676 162.582 11.4845 162.521 11.3016C162.338 10.6502 162.318 10.2227 162.399 9.77535L163.109 9.69329L162.48 9.44937C163.028 8.10596 163.434 7.49605 163.15 5.62352L163.15 5.62326ZM164.793 10.2227C165.158 11.8505 165.016 13.5607 164.611 15.1278C163.901 17.8341 162.744 18.7497 162.196 22.047C162.358 18.5666 163.414 17.4273 164.124 14.9439C164.509 13.6012 164.753 12.0547 164.793 10.2227ZM153.979 1.75663C148.988 4.09672 146.269 9.73381 146.188 15.1683C147.223 9.85666 148.907 5.29779 153.979 1.75663Z" fill="white"/>
<path d="M3.63812 16.716H13.3127V18.6874H3.63812V16.716ZM12.9875 11.1267H15.2842V24.2971H12.9875V11.1267ZM1.58532 11.1267H3.90234V24.2971H1.58532V11.1267ZM33.4967 21.2077V19.2362H41.342V21.2077H33.4967ZM30.448 24.2971L36.1998 11.1267H38.6795L44.472 24.2971H41.972L36.9315 12.4071H37.9478L32.9276 24.2971H30.448ZM62.6638 24.2971L57.1965 11.1267H59.7168L64.4118 22.8947H63.6598L68.3344 11.1267H70.814L65.4077 24.2971H62.6638ZM88.3331 18.6874V22.3052H97.5808V24.2971H86.0161V11.1267H97.5605V13.1185H88.3331V16.7769H95.8939V18.6874H88.3331ZM125.772 21.8987L125.081 22.163V11.1267H127.377V24.2971H125.081L115.203 13.586L115.914 13.3217V24.2971H113.597V11.1267H115.914L125.772 21.8987Z" fill="#1E1E1E"/>
<path d="M161.654 24.2971V11.1267H168.361C169.974 11.1267 171.207 11.4315 172.06 12.0413C172.928 12.6375 173.361 13.5047 173.361 14.6428C173.361 15.3745 173.192 15.9572 172.853 16.3908C172.528 16.8108 172.06 17.1292 171.451 17.346C170.841 17.5493 170.123 17.678 169.296 17.7322L169.377 17.6102C169.974 17.6238 170.536 17.678 171.064 17.7728C171.606 17.8541 172.081 18.0032 172.487 18.22C172.907 18.4368 173.232 18.7416 173.463 19.1346C173.707 19.514 173.829 20.0086 173.829 20.6183C173.829 21.4313 173.625 22.102 173.219 22.6304C172.812 23.1589 172.25 23.5654 171.532 23.8499C170.814 24.1209 169.987 24.27 169.052 24.2971H161.654ZM163.971 22.3256H168.707C169.587 22.3256 170.272 22.1765 170.76 21.8784C171.247 21.5668 171.491 21.0858 171.491 20.4354C171.491 19.9205 171.342 19.5479 171.044 19.3175C170.746 19.0736 170.36 18.9178 169.886 18.85C169.425 18.7823 168.93 18.7484 168.402 18.7484H163.971V22.3256ZM163.971 16.8176H168.219C169.1 16.8176 169.777 16.6685 170.251 16.3704C170.739 16.0588 170.983 15.571 170.983 14.9071C170.983 14.2567 170.739 13.796 170.251 13.525C169.777 13.2404 169.154 13.0982 168.382 13.0982H163.971V16.8176ZM191.526 16.716H201.201V18.6874H191.526V16.716ZM200.876 11.1267H203.172V24.2971H200.876V11.1267ZM189.473 11.1267H191.79V24.2971H189.473V11.1267ZM221.385 21.2077V19.2362H229.23V21.2077H221.385ZM218.336 24.2971L224.088 11.1267H226.568L232.36 24.2971H229.86L224.82 12.4071H225.836L220.816 24.2971H218.336ZM247.92 11.1267H250.237V24.2971H247.92V11.1267ZM266.997 24.2971V11.1267H274.781C275.757 11.1267 276.604 11.2689 277.322 11.5535C278.04 11.8245 278.596 12.2513 278.989 12.8339C279.382 13.403 279.578 14.1347 279.578 15.029C279.578 15.6252 279.476 16.1401 279.273 16.5737C279.07 16.9937 278.785 17.3392 278.42 17.6102C278.054 17.8812 277.627 18.0913 277.139 18.2403C276.665 18.3894 276.157 18.4842 275.615 18.5248L275.411 18.3826C276.279 18.3961 276.997 18.4774 277.566 18.6265C278.135 18.762 278.569 19.0262 278.867 19.4191C279.165 19.7985 279.314 20.3608 279.314 21.1061V24.2971H277.017V21.228C277.017 20.7131 276.922 20.3134 276.733 20.0289C276.556 19.7308 276.245 19.5275 275.798 19.4191C275.364 19.2972 274.741 19.2362 273.928 19.2362H269.314V24.2971H266.997ZM269.314 17.346H274.781C275.594 17.346 276.211 17.1428 276.631 16.7363C277.051 16.3298 277.261 15.7946 277.261 15.1306C277.261 14.4938 277.051 14.006 276.631 13.6673C276.211 13.315 275.594 13.1388 274.781 13.1388H269.314V17.346ZM294.736 19.9273H296.992C297.047 20.4286 297.243 20.8825 297.582 21.289C297.934 21.6819 298.395 21.9936 298.964 22.2239C299.547 22.4407 300.211 22.5491 300.956 22.5491C301.62 22.5491 302.168 22.4678 302.602 22.3052C303.036 22.1426 303.354 21.9191 303.557 21.6345C303.774 21.3364 303.883 20.9909 303.883 20.598C303.883 20.205 303.754 19.9002 303.496 19.6834C303.252 19.453 302.873 19.2633 302.358 19.1143C301.843 18.9517 301.186 18.7958 300.387 18.6468C299.723 18.5248 299.079 18.3623 298.456 18.159C297.833 17.9558 297.27 17.6983 296.769 17.3867C296.281 17.075 295.895 16.6956 295.61 16.2485C295.326 15.7878 295.184 15.2458 295.184 14.6225C295.184 13.9179 295.38 13.2811 295.773 12.712C296.179 12.1429 296.776 11.6958 297.562 11.3706C298.347 11.0454 299.303 10.8828 300.427 10.8828C302.148 10.8828 303.462 11.2825 304.37 12.0819C305.278 12.8678 305.719 13.9382 305.691 15.2932H303.476C303.435 14.4396 303.124 13.8231 302.541 13.4437C301.958 13.0643 301.22 12.8746 300.326 12.8746C299.526 12.8746 298.856 13.0169 298.314 13.3014C297.772 13.586 297.501 14.0466 297.501 14.6835C297.501 14.9545 297.562 15.1916 297.683 15.3948C297.819 15.5845 298.036 15.7607 298.334 15.9233C298.632 16.0723 299.038 16.2214 299.553 16.3704C300.082 16.5059 300.725 16.655 301.484 16.8176C302.135 16.926 302.744 17.075 303.313 17.2647C303.883 17.4544 304.377 17.6915 304.797 17.9761C305.231 18.2606 305.569 18.6265 305.813 19.0736C306.057 19.5208 306.179 20.0695 306.179 20.7199C306.179 21.4652 305.99 22.1291 305.61 22.7117C305.231 23.2808 304.648 23.7347 303.862 24.0735C303.09 24.3987 302.087 24.5613 300.854 24.5613C299.919 24.5613 299.099 24.4529 298.395 24.2361C297.704 24.0057 297.114 23.7144 296.627 23.3621C296.139 22.9963 295.746 22.6033 295.448 22.1833C295.163 21.7632 294.96 21.3568 294.838 20.9638C294.73 20.5573 294.696 20.2118 294.736 19.9273Z" fill="white"/>
</svg>
